<svg width="16" height="16" viewBox="0 0 16 16" fill="none" xmlns="http://www.w3.org/2000/svg">
<path d="M8.0001 1.6C4.4657 1.6 1.6001 4.4656 1.6001 8C1.6001 11.5344 4.4657 14.4 8.0001 14.4C11.5345 14.4 14.4001 11.5344 14.4001 8C14.4001 4.4656 11.5345 1.6 8.0001 1.6ZM8.53343 11.2H7.46676V7.46667H8.53343V11.2ZM8.0001 6.13333C7.5585 6.13333 7.2001 5.77493 7.2001 5.33333C7.2001 4.89173 7.5585 4.53333 8.0001 4.53333C8.4417 4.53333 8.8001 4.89173 8.8001 5.33333C8.8001 5.77493 8.4417 6.13333 8.0001 6.13333Z" fill="white"/>
</svg>
